<?xml version="1.0" standalone="no"?>
<!DOCTYPE svg PUBLIC "-//W3C//DTD SVG 20010904//EN"
 "http://www.w3.org/TR/2001/REC-SVG-20010904/DTD/svg10.dtd">
<svg version="1.0" xmlns="http://www.w3.org/2000/svg"
 width="2048.000000pt" height="2048.000000pt" viewBox="0 0 2048.000000 2048.000000"
 preserveAspectRatio="xMidYMid meet">
<metadata>
Created by potrace 1.11, written by Peter Selinger 2001-2013
</metadata>
<g transform="translate(0.000000,2048.000000) scale(0.100000,-0.100000)"
fill="#000000" stroke="none">
<path d="M6526 15003 c-2 -2 -46 -6 -97 -9 -111 -6 -120 -7 -138 -18 -10 -7
-12 -6 -6 4 6 10 4 11 -11 5 -10 -4 -35 -9 -54 -10 -19 -2 -35 -4 -35 -5 0 -1
-20 -3 -45 -5 -25 -2 -58 -6 -75 -9 -16 -3 -46 -9 -65 -12 -19 -3 -46 -8 -60
-11 -14 -3 -33 -5 -42 -5 -10 0 -20 -3 -23 -7 -2 -5 -16 -7 -30 -6 -14 2 -25
-1 -25 -6 0 -6 -4 -8 -8 -5 -4 3 -28 0 -53 -5 -24 -6 -52 -12 -62 -14 -10 -2
-26 -6 -35 -9 -9 -3 -32 -8 -51 -11 -19 -3 -41 -10 -50 -14 -9 -5 -18 -9 -21
-8 -17 3 -150 -39 -151 -47 -8 -71 -17 -689 -20 -1423 -1 -266 -5 -391 -12
-386 -6 4 -7 1 -1 -8 13 -22 14 -42 1 -58 -7 -8 -7 -12 -1 -8 11 6 14 -307 3
-328 -5 -9 -5 -29 1 -40 8 -16 3 -95 -5 -95 -6 0 -6 -3 0 -8 14 -9 13 -55 0
-64 -7 -5 -7 -8 0 -8 12 0 13 -69 2 -87 -4 -6 -3 -14 3 -18 7 -4 7 -12 0 -25
-7 -13 -7 -21 0 -25 7 -4 7 -12 0 -24 -5 -10 -6 -21 -3 -25 10 -10 11 -46 1
-46 -5 0 -4 -9 2 -20 8 -15 8 -20 -1 -20 -8 0 -9 -4 0 -13 6 -8 8 -16 5 -20
-9 -9 -11 -67 -2 -67 4 0 4 -10 0 -22 -9 -26 -8 -75 1 -84 4 -4 2 -15 -4 -25
-7 -13 -6 -19 1 -19 8 0 8 -6 0 -20 -6 -11 -7 -20 -3 -20 10 0 10 -41 0 -57
-4 -7 -3 -14 2 -17 6 -4 6 -18 1 -36 -5 -17 -5 -30 -1 -30 3 0 7 -9 7 -20 0
-11 -4 -20 -9 -20 -5 0 -4 -6 2 -14 8 -10 9 -16 1 -21 -7 -4 -7 -12 0 -25 7
-13 7 -21 0 -25 -8 -5 -8 -11 0 -20 8 -10 8 -15 0 -20 -8 -5 -8 -10 0 -20 8
-10 8 -15 0 -20 -8 -5 -8 -10 0 -20 8 -10 8 -15 0 -20 -7 -4 -8 -11 -2 -18 5
-7 6 -21 2 -32 -4 -11 -4 -29 0 -41 5 -11 4 -27 0 -34 -5 -8 -4 -22 1 -32 5
-10 6 -18 2 -18 -4 0 -8 -11 -8 -25 0 -14 4 -25 8 -25 4 0 3 -9 -3 -19 -7 -13
-7 -22 0 -26 7 -4 7 -13 0 -26 -8 -13 -7 -19 0 -19 7 0 7 -7 -1 -22 -7 -13
-11 -25 -10 -28 2 -3 7 -12 11 -20 7 -12 33 -15 147 -14 87 1 143 -3 152 -10
11 -8 13 -8 7 2 -4 7 -1 12 8 12 9 0 16 -6 16 -12 0 -9 3 -10 8 -2 9 13 180
13 201 0 9 -6 12 -5 8 1 -8 13 212 12 232 -1 10 -6 12 -6 7 2 -4 7 -1 12 8 12
9 0 16 -6 16 -12 0 -9 3 -10 8 -2 9 13 180 13 201 0 10 -6 12 -6 7 3 -9 15 53
12 73 -3 11 -8 13 -8 7 2 -4 7 -1 12 8 12 9 0 16 -6 16 -12 0 -10 2 -10 8 -1
5 8 25 11 54 9 26 -1 52 0 58 4 15 9 21 50 7 50 -7 0 -8 3 -1 10 7 7 8 29 4
55 -4 24 -3 50 1 57 4 7 3 18 -3 25 -7 9 -7 13 0 13 11 0 10 25 -1 36 -3 4 -2
15 4 25 7 13 6 19 -1 19 -6 0 -8 5 -4 12 9 14 9 76 1 85 -4 3 -2 14 4 24 7 13
6 19 -1 19 -7 0 -8 6 -1 18 7 13 6 23 -1 30 -7 7 -8 12 -2 12 5 0 10 9 10 20
0 11 -5 20 -10 20 -6 0 -6 4 0 10 7 7 8 29 4 55 -4 24 -3 50 1 57 4 7 3 18 -3
25 -7 9 -7 13 0 13 11 0 10 25 -1 36 -3 4 -2 15 4 25 7 13 6 19 -1 19 -6 0 -8
5 -4 12 10 16 11 68 1 68 -5 0 -5 5 -1 12 10 17 11 58 2 64 -5 3 -4 13 1 22 5
9 5 26 0 39 -5 13 -5 23 0 23 10 0 9 26 -2 36 -3 4 -2 15 4 25 7 13 6 19 -1
19 -6 0 -8 5 -4 12 10 16 11 68 1 68 -5 0 -5 6 -1 12 5 7 7 27 5 45 -2 29 0
32 23 27 14 -2 26 -1 26 3 0 5 46 9 103 10 98 3 212 10 212 13 0 1 11 3 25 4
33 4 116 16 143 22 12 3 36 7 52 9 28 5 49 9 93 19 9 2 53 14 97 27 44 12 86
22 93 22 6 0 12 4 12 8 0 4 9 6 20 4 11 -2 20 1 20 6 0 6 5 7 10 4 6 -3 10 -1
10 4 0 6 3 10 8 9 10 -3 49 11 112 39 67 31 92 40 104 41 5 0 12 4 15 9 3 4
36 24 73 43 37 19 68 38 68 43 0 4 7 7 15 7 8 0 15 4 15 9 0 5 8 12 18 15 9 3
32 19 50 35 17 17 32 28 32 25 0 -3 18 13 40 35 22 22 40 38 40 34 0 -3 13 10
29 30 15 20 31 34 35 30 3 -3 6 -1 6 5 0 10 12 29 45 66 34 38 125 193 118
200 -3 3 2 8 11 12 9 3 13 10 10 15 -3 6 0 16 6 24 7 8 9 15 5 15 -4 0 -3 6 2
13 12 14 46 114 49 140 1 9 3 18 4 20 1 1 4 16 5 32 2 17 4 30 5 30 8 0 21
141 22 230 1 99 -13 280 -23 280 -1 0 -3 9 -5 20 -1 11 -6 31 -9 45 -4 14 -8
32 -9 40 -1 9 -5 21 -10 28 -4 6 -4 12 0 12 3 0 2 6 -3 13 -12 14 -38 89 -35
100 1 4 -2 7 -8 7 -5 0 -10 4 -10 9 0 13 -28 72 -50 106 -11 17 -23 38 -26 48
-4 9 -11 17 -16 17 -5 0 -6 5 -3 10 3 6 -1 10 -10 10 -9 0 -13 5 -10 10 3 6 2
10 -4 10 -5 0 -12 8 -15 18 -6 19 -168 192 -179 192 -4 0 -15 8 -26 18 -25 23
-81 66 -95 72 -24 11 -162 95 -180 109 -11 9 -16 11 -13 5 4 -7 -21 2 -56 18
-34 17 -71 34 -82 38 -11 4 -33 13 -50 20 -16 6 -31 11 -33 11 -1 -1 -17 5
-35 12 -17 8 -38 12 -44 10 -7 -3 -13 -1 -13 5 0 5 -6 9 -12 9 -7 0 -33 6 -58
12 -25 7 -54 13 -65 15 -11 2 -21 5 -22 6 -2 1 -12 4 -23 5 -11 1 -21 3 -22 5
-2 1 -19 3 -38 5 -102 11 -138 15 -170 21 -37 6 -508 13 -514 7z m296 -1087
c16 10 159 11 165 2 2 -5 11 -4 19 3 10 8 14 8 14 0 0 -6 7 -11 15 -11 9 0 30
-6 48 -13 18 -8 36 -13 40 -13 5 1 13 -7 18 -16 6 -10 14 -18 20 -18 15 0 69
-52 69 -67 0 -7 4 -13 8 -13 5 0 17 -19 27 -42 27 -67 31 -81 30 -110 -1 -16
2 -28 5 -28 9 0 6 -32 -4 -48 -4 -7 -2 -12 6 -12 9 0 9 -3 -2 -10 -11 -7 -11
-10 -2 -10 8 0 10 -5 5 -12 -4 -7 -8 -15 -8 -18 -5 -41 -30 -110 -41 -114 -9
-3 -13 -10 -10 -15 3 -4 -2 -18 -12 -29 -9 -11 -25 -32 -36 -46 -10 -14 -23
-23 -29 -19 -5 3 -7 2 -4 -4 6 -10 -36 -53 -52 -53 -5 0 -11 -4 -13 -8 -5 -11
-120 -66 -143 -68 -11 -1 -31 -6 -45 -12 -14 -5 -77 -9 -140 -8 l-115 1 1 65
c1 36 5 139 9 230 4 91 8 185 9 210 1 25 5 51 9 57 4 7 4 21 -1 30 -10 21 -10
33 1 50 4 7 3 22 -3 33 -6 11 -7 20 -2 20 4 0 7 20 6 45 -2 43 -1 45 35 55 20
5 44 10 53 10 9 0 20 5 24 12 6 9 9 9 12 0 2 -7 8 -9 14 -6z"/>
<path d="M13400 14903 c0 -4 -39 -8 -88 -9 -76 0 -170 -5 -329 -19 -23 -1 -59
-6 -80 -9 -21 -4 -58 -9 -83 -11 -25 -3 -56 -8 -70 -11 -14 -3 -44 -7 -67 -7
-24 -1 -43 -5 -43 -8 0 -3 -6 -6 -12 -6 -22 -1 -123 -20 -123 -23 0 -1 -9 -3
-20 -5 -29 -4 -72 -13 -93 -19 -9 -3 -28 -7 -42 -10 -14 -3 -43 -10 -65 -16
-52 -14 -86 -22 -105 -25 -8 -1 -28 -7 -43 -14 -16 -6 -34 -11 -41 -11 -8 0
-16 -9 -19 -20 -3 -11 -1 -20 4 -20 6 0 5 -8 -1 -19 -7 -14 -7 -22 0 -26 6 -4
7 -12 3 -18 -5 -7 -8 -50 -8 -97 0 -47 -4 -88 -9 -91 -4 -4 -3 -16 3 -27 8
-15 8 -22 -2 -25 -9 -4 -8 -6 2 -6 11 -1 11 -4 1 -16 -10 -12 -10 -15 1 -15
11 0 11 -3 -1 -11 -11 -8 -12 -12 -2 -16 6 -2 9 -10 5 -16 -9 -16 -10 -87 0
-87 4 0 5 -5 1 -11 -4 -7 -8 -305 -9 -664 -1 -359 -5 -658 -9 -664 -4 -6 -4
-11 1 -11 4 0 8 -18 8 -40 0 -22 -4 -40 -8 -40 -5 0 -5 -5 -1 -11 10 -16 11
-89 1 -89 -4 0 -3 -8 2 -19 6 -10 8 -21 5 -24 -9 -8 -10 -187 -1 -187 4 0 3
-9 -3 -20 -8 -15 -8 -20 2 -20 8 0 9 -3 3 -8 -14 -10 -17 -32 -5 -32 5 0 8 -6
5 -12 -11 -33 -12 -88 -2 -88 8 0 8 -3 0 -11 -8 -8 -8 -20 -2 -36 5 -13 6 -22
1 -19 -11 7 -9 -128 3 -136 7 -5 7 -8 0 -8 -9 0 -12 -46 -5 -75 1 -5 1 -14 0
-20 -2 -5 -4 -132 -4 -282 -2 -187 1 -270 8 -265 7 3 7 0 0 -9 -7 -9 -11 -78
-10 -199 l1 -185 75 0 c41 0 81 -4 89 -9 10 -6 12 -6 7 2 -4 7 -1 12 8 12 9 0
16 -6 16 -12 0 -9 3 -10 8 -2 9 13 180 13 201 0 9 -6 12 -5 8 1 -8 13 212 12
232 -1 10 -6 12 -6 7 2 -4 7 -1 12 8 12 9 0 16 -6 16 -12 0 -9 3 -10 8 -2 9
13 180 13 201 0 9 -6 12 -5 8 1 -8 13 212 12 232 -1 10 -6 12 -6 7 2 -4 7 -1
12 8 12 9 0 16 -6 16 -12 0 -10 2 -10 8 0 5 7 22 12 38 11 16 -1 36 -1 44 0
13 1 15 72 15 572 -1 616 -2 599 51 579 12 -5 24 -6 27 -3 3 3 37 7 76 9 161
8 310 26 333 40 7 5 8 3 3 -5 -6 -10 -3 -11 13 -2 12 6 25 11 29 10 4 -1 10 0
13 1 13 5 48 10 77 13 18 1 33 5 33 8 0 3 6 6 13 7 6 0 23 3 37 6 14 3 40 9
58 12 18 3 35 10 37 15 3 4 14 6 25 4 11 -2 20 0 20 6 0 5 8 9 18 9 10 0 46
11 80 24 34 14 62 21 62 18 0 -4 4 -1 8 5 4 7 17 14 28 16 11 1 42 15 71 29
28 15 53 24 57 21 3 -4 6 -1 6 5 0 10 38 28 53 24 4 -1 7 2 7 8 0 5 4 10 10
10 5 0 34 16 65 35 30 20 57 36 59 36 6 0 47 33 83 67 13 12 26 22 28 22 8 0
85 82 85 91 0 6 4 8 8 5 5 -3 15 5 23 16 8 12 24 32 37 45 12 13 22 28 22 33
0 6 5 10 11 10 5 0 8 4 5 9 -4 5 -3 11 2 13 7 3 51 72 85 136 10 17 15 37 11
44 -4 6 -3 8 3 5 8 -5 37 60 45 103 2 8 6 17 9 20 4 3 10 21 13 40 3 19 10 50
15 69 6 19 8 38 5 42 -3 5 -2 9 3 9 8 0 13 53 16 163 1 26 6 47 12 47 7 0 7 3
0 8 -5 4 -11 36 -11 72 -2 84 -11 167 -23 208 -6 21 -6 32 0 32 6 0 3 10 -5
22 -9 12 -16 35 -16 50 0 16 -4 28 -8 28 -5 0 -9 6 -10 13 -2 26 -20 75 -48
131 -8 16 -14 35 -14 42 0 7 -3 14 -7 16 -5 2 -19 23 -32 48 -14 25 -27 47
-30 50 -3 3 -20 25 -36 50 -49 73 -126 155 -204 218 -25 20 -49 42 -53 47 -4
6 -8 7 -8 3 0 -4 -12 4 -26 17 -15 14 -33 25 -40 25 -8 0 -14 5 -14 12 0 6 -3
9 -6 5 -3 -3 -28 9 -54 28 -26 19 -51 31 -54 28 -3 -4 -6 -1 -6 5 0 7 -3 11
-7 10 -5 0 -30 10 -58 22 -27 13 -53 23 -57 22 -5 -1 -8 3 -8 8 0 5 -3 9 -7 8
-5 -1 -25 6 -47 15 -21 9 -45 17 -52 17 -8 0 -14 4 -14 8 0 5 -6 9 -12 10 -15
1 -36 6 -58 15 -8 3 -37 10 -65 17 -27 7 -57 15 -65 18 -8 3 -24 6 -35 7 -11
1 -27 5 -36 9 -9 4 -20 6 -25 5 -5 -1 -12 0 -16 1 -5 1 -17 4 -28 5 -11 1 -21
3 -22 4 -2 1 -23 4 -48 6 -25 3 -61 7 -80 10 -19 2 -104 7 -188 10 -85 3 -158
7 -163 10 -5 4 -9 3 -9 -2z m325 -1097 c11 -2 21 -5 23 -6 1 -2 5 -3 10 -5 57
-16 152 -81 152 -104 0 -6 5 -11 10 -11 15 0 60 -104 67 -153 9 -63 4 -190 -7
-204 -2 -2 -3 -6 -4 -10 -7 -29 -63 -121 -91 -148 -18 -19 -31 -36 -28 -38 2
-3 -5 -8 -16 -12 -12 -3 -21 -11 -21 -16 0 -5 -7 -9 -15 -9 -8 0 -15 -4 -15
-9 0 -5 -17 -16 -37 -25 -21 -9 -46 -21 -56 -27 -10 -5 -22 -7 -27 -4 -4 3
-10 1 -12 -5 -1 -5 -20 -11 -40 -12 -21 -2 -38 -5 -38 -8 0 -3 -45 -6 -100 -7
-72 -2 -100 1 -100 10 0 8 -3 7 -9 -2 -5 -7 -14 -10 -21 -6 -9 6 -9 9 1 16 9
5 10 9 3 9 -8 0 -10 11 -5 33 3 17 6 69 6 115 0 45 4 82 9 82 5 0 2 7 -5 17
-11 13 -11 17 -1 21 10 3 10 7 1 18 -9 11 -9 14 1 14 10 0 10 3 0 15 -7 8 -9
15 -4 15 5 0 10 46 11 103 2 56 5 140 7 187 2 47 5 99 5 116 1 28 5 32 39 38
62 10 96 17 99 20 4 4 186 -3 208 -8z"/>
<path d="M10663 14847 c-2 -4 -9 -5 -14 -1 -6 3 -7 -8 -3 -28 6 -35 6 -376 0
-548 -6 -159 -23 -455 -26 -455 -1 0 -3 -27 -5 -60 -6 -101 -13 -164 -20 -175
-3 -5 0 -10 7 -10 8 0 9 -3 3 -8 -5 -4 -10 -16 -11 -27 -2 -33 -14 -146 -24
-214 -5 -36 -7 -68 -4 -73 3 -4 1 -8 -4 -8 -5 0 -8 -11 -7 -25 2 -14 0 -25 -4
-25 -4 0 -7 -16 -6 -35 0 -19 -2 -35 -5 -35 -3 0 -5 -10 -6 -22 -1 -23 -11
-88 -19 -123 -2 -11 -9 -38 -14 -59 -5 -22 -8 -44 -5 -48 3 -4 2 -8 -3 -8 -7
0 -11 -18 -16 -72 -1 -10 -6 -18 -11 -18 -5 0 -7 -2 -4 -6 3 -3 0 -25 -7 -49
-8 -24 -11 -46 -8 -49 4 -3 0 -6 -7 -6 -7 0 -11 -3 -8 -6 3 -3 -3 -28 -13 -56
-10 -28 -16 -55 -13 -59 3 -5 0 -9 -5 -9 -6 0 -11 -6 -11 -13 0 -7 -9 -29 -20
-50 -11 -20 -17 -37 -13 -37 5 0 4 -4 -2 -8 -5 -4 -23 -31 -39 -61 -30 -56
-51 -85 -99 -133 -31 -32 -101 -70 -111 -61 -3 4 -6 2 -6 -4 0 -16 -92 -8
-132 12 -20 10 -35 22 -33 26 3 3 -1 12 -9 18 -7 6 -21 29 -31 51 -10 22 -22
40 -27 40 -5 0 -7 4 -4 9 4 5 2 21 -4 35 -5 15 -12 37 -14 49 -19 91 -22 115
-20 130 1 9 -1 17 -5 17 -9 0 -6 509 2 550 3 14 8 59 11 100 3 41 8 84 10 95
7 35 19 139 18 158 0 9 2 17 6 17 4 0 7 19 7 43 0 23 3 47 6 52 7 9 14 44 25
120 3 17 7 41 11 55 3 14 5 31 4 38 -1 6 2 12 7 12 5 0 8 12 6 26 -1 15 1 34
6 43 4 9 13 41 19 71 14 71 18 86 32 135 6 22 11 52 12 68 1 15 6 27 11 27 5
0 7 3 3 6 -3 3 -1 18 4 33 10 24 19 67 21 99 1 6 5 12 10 12 5 0 8 8 7 18 -1
9 1 24 4 32 4 8 9 26 11 40 3 14 5 25 6 25 1 0 3 8 5 18 2 10 7 26 11 35 3 9
9 33 11 52 2 19 9 40 15 47 6 7 8 13 5 13 -3 0 -1 15 4 33 25 79 47 72 -219
73 -205 1 -567 10 -567 14 0 1 -35 2 -77 3 -42 1 -80 5 -83 9 -4 4 -16 3 -26
-2 -12 -7 -19 -6 -22 3 -4 9 -6 9 -6 -1 -1 -10 -6 -10 -22 -1 -17 9 -20 8 -14
-2 6 -8 4 -10 -5 -4 -7 5 -71 10 -141 12 l-128 4 -6 -45 c-4 -25 -10 -46 -14
-46 -3 0 -6 -10 -7 -22 0 -13 -4 -39 -8 -58 -4 -19 -8 -42 -10 -50 -1 -9 -5
-20 -8 -26 -4 -5 -5 -22 -4 -37 2 -15 0 -27 -4 -27 -4 0 -7 -6 -7 -12 0 -15
-11 -81 -18 -118 -9 -43 -16 -90 -29 -205 -4 -32 -9 -62 -11 -65 -2 -3 -4 -25
-6 -50 -2 -25 -8 -48 -14 -52 -6 -5 -6 -8 2 -8 7 0 10 -6 8 -12 -6 -19 -16
-96 -18 -150 -1 -27 -4 -48 -7 -48 -3 0 -5 -21 -6 -48 -2 -90 -11 -202 -17
-209 -4 -3 -2 -12 4 -19 7 -8 7 -14 -1 -19 -8 -5 -8 -11 1 -21 6 -8 7 -14 2
-14 -5 0 -9 -34 -8 -76 0 -42 -2 -77 -5 -79 -5 -3 -4 -672 1 -732 1 -18 5 -33
9 -33 3 0 7 -10 7 -22 2 -33 8 -67 21 -113 6 -22 12 -43 12 -47 0 -4 7 -25 15
-47 7 -22 11 -42 8 -45 -4 -3 -1 -6 6 -6 6 0 11 -6 10 -12 -1 -7 2 -24 8 -38
6 -14 18 -42 26 -62 8 -20 13 -39 9 -42 -3 -3 0 -6 7 -6 7 0 10 -4 7 -9 -4 -5
-3 -11 1 -13 11 -4 53 -90 53 -105 0 -7 5 -13 10 -13 6 0 10 -7 10 -15 0 -8 8
-23 18 -33 27 -28 52 -78 44 -87 -4 -5 -1 -5 6 -1 6 4 12 2 12 -4 0 -10 40
-67 75 -106 5 -7 21 -26 35 -44 32 -41 83 -90 93 -90 5 0 6 -4 3 -8 -3 -5 6
-15 19 -22 14 -7 27 -22 31 -32 3 -11 8 -17 11 -14 3 3 17 -6 30 -20 12 -14
23 -22 23 -19 0 3 28 -15 62 -40 34 -25 65 -45 70 -45 4 0 30 -14 58 -30 28
-17 48 -25 44 -18 -4 7 3 4 15 -7 13 -11 24 -18 25 -16 0 2 24 -3 52 -13 96
-32 133 -37 287 -40 70 -1 127 1 127 4 0 3 10 7 23 7 35 2 99 13 108 19 5 3
17 7 27 9 35 6 182 78 182 88 0 6 2 8 5 5 6 -6 39 19 87 67 l30 30 -7 -60 c-4
-33 -7 -67 -7 -75 0 -8 -6 -21 -12 -29 -8 -11 -8 -13 1 -8 14 9 6 -60 -9 -80
-5 -7 -5 -14 2 -18 6 -3 7 -11 3 -17 -3 -7 -8 -30 -9 -52 -2 -22 -6 -46 -8
-53 -3 -7 -1 -13 5 -13 6 0 7 -5 3 -12 -4 -7 -3 -8 4 -4 7 4 44 9 84 12 163
10 188 13 198 19 5 3 10 1 10 -5 0 -6 5 -8 13 -3 6 4 35 9 62 10 28 1 73 4
100 7 28 2 96 7 152 11 131 9 148 10 161 19 7 4 12 3 12 -3 0 -7 8 -7 25 -1
17 6 25 6 25 -1 0 -6 5 -7 12 -3 7 5 28 9 48 10 199 12 216 16 203 37 -10 16
-13 37 -5 37 7 0 13 83 16 217 0 33 4 59 7 57 3 -2 6 20 7 49 1 29 4 75 6 102
3 28 8 77 11 110 3 33 8 87 11 120 3 33 6 80 7 105 1 25 6 51 10 58 5 7 3 12
-5 12 -8 0 -9 3 -3 8 6 4 10 32 10 62 0 30 2 60 4 65 3 6 6 19 7 30 6 82 15
193 20 246 4 35 7 73 8 84 1 11 5 26 9 33 5 6 4 12 -1 12 -9 0 -10 29 -1 45 3
6 5 27 4 48 -1 20 1 37 4 37 3 0 6 27 6 60 0 33 2 60 5 60 3 0 5 21 6 48 1 43
8 126 19 210 2 18 0 32 -6 32 -6 0 -4 6 3 14 8 7 13 29 12 47 -1 19 2 40 8 46
7 9 7 13 -1 13 -7 0 -9 4 -6 10 6 9 11 47 20 155 3 33 7 76 10 95 2 19 7 62 9
95 3 33 8 80 11 105 4 25 7 64 8 88 0 23 4 42 7 42 3 0 5 21 5 48 -1 26 1 51
4 56 2 5 5 27 6 50 3 50 14 134 22 160 3 13 1 16 -7 11 -9 -6 -9 -3 -1 13 9
18 23 105 24 152 0 8 4 21 10 28 6 8 6 12 -2 12 -7 0 -8 8 -3 23 5 12 8 29 7
37 -1 8 1 19 3 24 3 5 6 27 8 50 2 23 5 59 8 81 3 22 7 60 10 85 3 25 8 68 12
95 3 28 7 66 9 86 2 20 6 50 9 67 7 27 5 30 -23 34 -17 3 -31 2 -31 -1 0 -3
-84 -6 -188 -6 -103 0 -195 -4 -204 -8 -10 -4 -18 -4 -18 1 0 9 -63 7 -88 -3
-7 -2 -11 -1 -8 4 8 12 -77 8 -86 -4 -5 -7 -8 -7 -8 0 0 6 -81 10 -223 10
-122 -1 -226 1 -231 3 -15 8 -108 7 -113 -1z"/>
<path d="M3767 9504 c-1 -1 -33 -5 -72 -9 -38 -4 -77 -9 -85 -10 -8 -2 -46
-10 -85 -19 -38 -8 -73 -12 -77 -10 -4 3 -8 0 -8 -6 0 -6 -4 -9 -9 -5 -5 3
-12 1 -15 -4 -3 -4 -24 -11 -46 -15 -22 -3 -40 -11 -40 -17 0 -5 -4 -8 -9 -4
-6 3 -50 -12 -100 -34 -50 -21 -93 -36 -96 -33 -3 3 -5 1 -5 -5 0 -6 -12 -16
-27 -22 -27 -10 -83 -41 -93 -51 -3 -3 -17 -11 -32 -17 -16 -7 -28 -17 -28
-23 0 -5 -5 -10 -11 -10 -39 0 -284 -237 -327 -316 -7 -13 -17 -24 -22 -24 -6
0 -10 -7 -10 -15 0 -8 -5 -15 -11 -15 -5 0 -7 -4 -4 -10 3 -5 1 -10 -4 -10 -6
0 -11 -7 -11 -15 0 -8 -5 -15 -11 -15 -5 0 -8 -4 -4 -9 3 -5 1 -12 -4 -16 -9
-5 -39 -65 -76 -150 -14 -30 -24 -64 -25 -77 -1 -4 -7 -25 -14 -45 -15 -43
-39 -174 -39 -215 -1 -16 -5 -28 -9 -28 -5 0 -5 -8 1 -17 5 -10 5 -26 0 -40
-5 -15 -5 -23 2 -23 6 0 6 -7 2 -17 -10 -22 -10 -44 0 -60 4 -6 3 -14 -3 -18
-6 -4 -7 -12 -3 -18 4 -6 8 -32 10 -57 1 -25 7 -67 13 -95 6 -27 12 -59 14
-70 2 -11 4 -20 5 -20 3 0 6 -12 15 -53 3 -13 12 -37 21 -54 8 -17 15 -37 15
-45 0 -7 5 -13 10 -13 6 0 9 -4 8 -8 -4 -10 44 -106 55 -110 4 -2 7 -10 7 -18
0 -8 5 -14 10 -14 6 0 10 -6 10 -12 0 -33 213 -246 256 -256 8 -2 14 -8 14
-13 0 -5 5 -9 11 -9 6 0 24 -9 40 -21 16 -11 29 -17 29 -13 0 4 8 0 18 -8 9
-8 33 -20 52 -27 19 -7 47 -19 62 -27 15 -8 29 -14 30 -13 2 0 21 -3 43 -7 53
-11 55 -11 58 -14 1 -1 13 -3 27 -4 14 -1 30 -4 35 -7 6 -3 27 -5 48 -4 20 0
37 -2 37 -5 0 -3 57 -5 128 -5 118 0 153 -2 272 -19 59 -9 75 -14 138 -42 29
-13 55 -31 58 -39 4 -8 9 -13 13 -11 4 3 14 -9 24 -25 9 -17 12 -27 6 -23 -7
4 -7 -2 1 -16 7 -13 9 -36 5 -56 -3 -19 -6 -37 -6 -41 0 -13 -62 -73 -75 -73
-7 0 -14 -4 -16 -9 -1 -5 -12 -11 -23 -13 -11 -1 -22 -6 -25 -10 -12 -16 -140
-30 -270 -30 -138 0 -350 18 -360 31 -3 3 -18 7 -35 8 -54 4 -75 7 -75 13 0 3
-15 7 -32 9 -50 5 -61 7 -91 19 -15 7 -40 14 -55 17 -44 10 -47 10 -57 16 -5
4 -27 12 -47 18 -21 7 -38 17 -38 22 0 6 -4 7 -10 4 -11 -7 -201 82 -212 99
-4 6 -8 7 -8 2 0 -5 -7 -3 -15 4 -17 14 -39 4 -31 -16 3 -8 2 -14 -2 -14 -4 0
-8 -21 -8 -48 -1 -26 -5 -76 -9 -112 -4 -36 -8 -76 -10 -90 -1 -14 -5 -47 -9
-75 -8 -69 -19 -186 -18 -207 0 -10 -5 -18 -11 -18 -7 0 -6 -4 3 -10 8 -5 11
-10 5 -10 -5 0 -10 -19 -9 -42 0 -24 -4 -51 -9 -62 -7 -14 -6 -16 4 -11 8 6
10 4 3 -6 -10 -16 -9 -13 -18 -104 -20 -198 -22 -220 -26 -220 -1 0 -3 -12 -4
-27 -1 -22 4 -28 36 -39 21 -7 38 -16 38 -21 0 -4 9 -8 19 -8 11 0 22 -4 25
-9 3 -5 18 -12 33 -16 15 -3 47 -15 70 -26 48 -22 84 -36 96 -38 4 0 21 -8 37
-16 17 -9 35 -13 40 -10 5 3 13 -3 19 -12 6 -10 11 -15 11 -11 0 5 22 -1 49
-11 28 -10 52 -16 55 -13 4 3 6 0 6 -7 0 -6 6 -11 13 -10 6 1 25 -3 40 -9 16
-7 37 -12 47 -12 10 0 21 -4 25 -10 3 -5 12 -7 20 -3 8 3 15 0 15 -6 0 -6 7
-8 17 -4 9 4 14 2 11 -3 -4 -5 4 -10 15 -10 30 -3 49 -8 66 -18 11 -7 12 -6 6
5 -7 11 -6 12 6 2 16 -13 51 -22 122 -30 26 -3 47 -8 47 -12 0 -15 354 -20
460 -6 30 4 64 8 75 9 69 8 175 31 175 39 0 4 4 5 10 2 8 -5 124 24 170 42 8
4 17 7 20 8 40 11 129 47 171 70 14 8 29 12 33 10 3 -3 4 -2 1 1 -2 4 19 18
48 33 63 32 133 76 142 91 3 6 12 7 18 4 7 -4 9 -4 5 1 -4 4 9 20 30 35 58 42
134 120 220 225 4 6 8 12 8 15 0 3 11 18 24 33 14 16 25 33 25 38 0 5 5 13 10
17 16 11 106 193 100 202 -3 5 1 14 8 22 7 7 19 36 26 63 7 28 15 57 19 65 3
8 7 26 9 40 2 14 6 32 10 40 3 8 7 26 8 40 2 14 6 41 10 60 13 73 20 334 10
400 -14 99 -18 127 -18 138 0 6 -4 12 -9 12 -6 0 -8 6 -5 13 2 6 -7 41 -20 77
-13 36 -25 70 -26 75 -1 6 -4 12 -7 15 -3 3 -14 23 -25 45 -33 68 -87 144
-142 200 -12 13 -19 26 -15 31 4 4 2 4 -4 1 -6 -3 -26 9 -45 28 -19 19 -40 35
-46 35 -7 0 -13 4 -13 8 0 8 -49 40 -63 41 -4 0 -15 7 -23 16 -9 8 -22 15 -30
15 -8 0 -14 5 -14 10 0 6 -3 9 -7 9 -5 -1 -11 0 -15 1 -5 1 -11 3 -15 4 -5 1
-18 7 -30 14 -13 7 -23 9 -23 5 0 -4 -4 -3 -8 2 -4 6 -32 17 -62 24 -30 8 -61
19 -69 25 -12 9 -13 8 -6 -4 7 -12 6 -13 -6 -5 -8 6 -27 12 -44 14 -16 1 -45
6 -62 11 -20 5 -33 5 -33 -1 0 -6 -7 -6 -17 -1 -10 5 -83 10 -163 10 -167 2
-284 8 -320 17 -14 4 -35 8 -47 9 -12 1 -25 5 -28 8 -4 4 -13 4 -21 1 -8 -3
-14 0 -14 6 0 6 -3 10 -7 9 -25 -5 -118 60 -118 82 0 5 -3 12 -7 16 -14 13 -9
75 8 110 17 35 96 99 108 87 3 -3 14 1 23 10 10 8 21 16 26 16 8 0 51 7 102
16 149 28 473 22 605 -11 35 -8 72 -15 93 -17 9 -1 17 -4 17 -8 0 -4 9 -5 20
-2 11 3 20 1 20 -5 0 -5 6 -9 13 -8 21 2 137 -28 137 -36 0 -4 7 -5 15 -2 8 4
22 1 30 -6 8 -6 18 -9 24 -6 5 4 15 0 23 -7 20 -19 51 -15 54 8 2 11 6 52 9
90 4 39 9 95 12 125 3 30 6 72 7 92 0 21 3 38 6 38 3 0 6 33 8 73 1 39 5 92 8
117 3 25 6 63 8 85 2 22 7 76 11 120 5 44 8 90 7 103 -1 12 2 22 6 22 4 0 7
24 8 53 0 28 3 75 6 102 l6 51 -51 23 c-29 12 -81 32 -117 44 -36 11 -67 25
-68 29 -2 4 -7 6 -11 3 -5 -2 -38 4 -74 14 -37 10 -69 16 -72 13 -3 -3 -5 -1
-5 4 0 10 -4 11 -72 15 -21 2 -38 6 -38 10 0 4 -13 6 -30 5 -16 -1 -30 0 -30
3 0 4 -12 7 -27 8 -16 1 -46 4 -68 7 -127 14 -538 30 -548 20z"/>
<path d="M10401 9325 c-1 -49 -1 -99 -1 -110 1 -11 1 -24 1 -30 -2 -37 -11
-383 -15 -541 -2 -106 -7 -197 -10 -203 -4 -6 -2 -11 4 -11 7 0 9 -7 6 -17 -4
-9 -9 -122 -11 -250 -2 -128 -6 -237 -10 -243 -3 -5 0 -10 7 -10 8 0 9 -3 3
-8 -6 -4 -10 -79 -10 -189 0 -109 -4 -183 -10 -183 -5 0 -4 -5 3 -12 7 -7 8
-17 1 -30 -7 -13 -6 -18 2 -18 8 0 7 -5 -2 -17 -14 -17 -14 -20 3 -40 7 -9 7
-13 -1 -13 -9 0 -9 -5 0 -21 8 -16 8 -20 -1 -14 -14 9 -10 -27 5 -37 7 -5 7
-8 0 -8 -6 0 -10 -54 -10 -143 0 -78 -3 -152 -7 -164 -5 -16 -3 -23 5 -23 7 0
8 -3 2 -8 -6 -4 -11 -68 -11 -152 -1 -80 -4 -271 -8 -425 -3 -154 -6 -322 -7
-373 -1 -66 -4 -90 -12 -86 -8 5 -7 2 1 -7 6 -7 12 -19 12 -27 0 -8 -5 -10
-12 -6 -10 6 -10 5 -1 -7 12 -15 12 -36 0 -56 -4 -6 -4 -14 0 -16 10 -6 9 -89
-1 -105 -3 -6 -2 -13 3 -17 6 -3 7 -16 3 -28 -9 -27 -8 -99 1 -114 5 -8 72
-11 72 -3 0 1 15 2 33 3 17 1 32 -2 32 -8 0 -5 4 -5 8 2 5 7 35 13 75 14 45 1
64 5 60 13 -4 6 0 6 9 -1 8 -7 17 -11 20 -8 4 5 108 14 218 19 25 1 51 6 58
10 7 4 12 2 12 -6 0 -8 3 -9 8 -2 4 5 36 11 72 11 36 1 65 2 65 3 0 1 25 4 55
5 30 2 55 4 55 5 0 0 29 3 65 6 122 8 146 11 158 17 6 4 13 3 17 -3 4 -6 11
-8 16 -4 10 6 139 18 201 18 20 0 35 2 33 5 -2 4 22 7 53 7 57 1 179 9 282 19
106 9 316 25 380 29 20 1 42 6 49 11 10 6 12 4 6 -5 -6 -9 -4 -11 6 -5 7 5 42
10 77 10 76 2 82 8 87 93 2 31 4 57 5 57 1 0 3 23 5 50 1 28 6 82 10 120 4 39
8 89 9 112 1 24 5 43 9 43 4 0 3 10 -4 21 -6 12 -7 19 -2 16 6 -4 11 14 12 41
1 26 4 61 5 77 8 76 19 193 20 220 1 17 6 36 10 44 7 10 6 12 -4 6 -10 -6 -11
-4 -4 6 5 8 10 37 10 64 1 28 3 50 4 50 1 0 3 19 5 41 1 23 6 47 9 53 4 6 2
11 -5 11 -7 0 -8 4 -2 13 5 6 10 24 11 40 1 19 -3 27 -16 28 -9 0 -257 1 -550
2 l-533 0 5 46 c7 67 19 233 18 254 0 11 4 15 11 10 9 -5 9 -3 0 8 -10 12 -10
18 -1 27 9 9 9 12 -1 12 -7 0 -9 5 -5 11 7 12 17 121 18 206 1 29 3 53 6 53 3
0 6 26 7 58 1 31 2 57 3 57 1 0 4 27 6 60 2 33 6 92 9 130 3 39 8 93 10 120 2
28 4 50 5 50 1 0 3 29 6 65 5 93 11 165 14 165 7 0 6 36 -1 41 -6 3 -5 11 2
20 9 11 8 14 -2 14 -10 0 -10 3 -3 8 14 9 24 72 12 72 -5 0 -6 5 -2 12 4 6 8
25 10 42 7 87 17 224 18 246 0 14 5 28 11 32 6 5 6 8 -1 8 -8 0 -10 11 -5 33
4 17 7 56 6 84 0 29 3 53 6 53 3 0 6 27 5 60 -1 33 2 60 5 60 3 0 6 17 6 38 0
20 3 73 6 117 4 44 9 109 12 145 l5 65 -703 0 -704 0 -2 -90z"/>
<path d="M12899 9325 c0 -49 -3 -171 -5 -270 -3 -99 -6 -229 -7 -290 -1 -60
-6 -115 -10 -122 -4 -6 -3 -14 1 -17 10 -6 9 -36 -1 -52 -3 -6 -3 -14 0 -18
11 -10 11 -46 0 -46 -5 0 -4 -6 2 -14 9 -10 9 -16 1 -21 -8 -5 -8 -11 1 -21 9
-11 9 -14 0 -14 -8 0 -9 -5 -2 -18 6 -11 6 -24 1 -32 -5 -9 -5 -19 2 -27 6 -7
7 -13 2 -13 -5 0 -9 -65 -9 -145 0 -80 -4 -145 -8 -145 -5 0 -5 -5 -1 -12 8
-13 12 -78 4 -78 -3 0 -5 -80 -5 -178 0 -97 -3 -184 -7 -193 -4 -9 -4 -19 -1
-23 11 -11 12 -36 1 -36 -7 0 -7 -5 1 -13 6 -8 8 -17 4 -21 -11 -11 -10 -96 2
-96 6 0 7 -3 0 -8 -5 -4 -10 -18 -10 -32 0 -14 5 -28 10 -32 7 -5 6 -8 -1 -8
-6 0 -11 -37 -11 -102 -1 -57 -4 -204 -7 -328 -10 -390 -18 -790 -20 -942 0
-80 -4 -144 -8 -142 -4 2 -3 -9 2 -26 6 -21 5 -30 -3 -30 -7 0 -6 -4 3 -10 8
-5 10 -10 4 -10 -6 0 -11 -7 -11 -15 0 -8 4 -15 8 -15 5 0 5 -10 1 -22 -4 -13
-8 -48 -7 -78 l0 -55 35 2 c44 2 220 15 235 17 5 1 16 6 24 10 10 7 12 6 6 -4
-6 -10 -4 -12 11 -6 16 6 98 14 224 20 19 1 41 5 48 9 7 5 12 3 12 -3 0 -6 5
-8 13 -3 6 4 28 8 47 9 78 3 225 16 233 21 4 2 7 -2 7 -9 0 -8 3 -9 8 -2 4 5
27 11 52 13 25 1 68 4 95 7 58 5 179 14 245 18 25 1 50 5 56 8 5 4 16 3 24 -2
8 -5 21 -5 29 -1 9 4 36 9 60 10 25 1 48 4 53 7 4 3 8 -1 8 -8 0 -8 3 -9 8 -2
4 5 23 11 42 11 19 0 73 4 120 9 47 4 102 8 123 7 20 0 37 3 37 6 0 4 26 7 58
7 67 2 247 12 247 14 0 1 23 4 50 6 28 3 55 5 61 6 6 1 12 15 12 32 0 17 2 50
6 74 3 23 7 62 8 87 1 28 5 42 12 38 7 -4 7 -1 -1 7 -6 7 -8 23 -4 39 4 14 7
38 6 54 -1 15 3 27 8 27 5 0 4 6 -2 14 -7 8 -8 17 -3 20 5 3 8 20 8 38 -1 18
3 36 8 40 7 5 6 8 -2 8 -7 0 -10 5 -7 10 6 10 10 44 20 160 2 30 6 74 9 98 3
23 7 62 8 87 0 25 4 45 7 45 3 0 7 26 7 58 2 90 10 167 19 182 6 9 4 11 -5 5
-10 -6 -11 -4 -4 6 11 18 14 63 4 69 -5 3 -252 5 -550 4 l-542 0 5 23 c2 13
-1 23 -7 23 -7 0 -7 3 1 8 7 4 11 16 9 26 -1 11 0 37 4 58 5 25 4 38 -4 38 -8
0 -8 3 0 8 5 4 12 30 14 57 1 28 4 68 6 90 1 22 3 40 4 40 1 0 3 23 4 50 1 28
5 56 9 63 5 7 3 12 -3 12 -6 0 -8 5 -4 11 3 6 7 26 9 45 1 19 5 37 8 40 3 3 2
17 -3 30 -5 13 -6 24 -2 24 4 0 8 24 9 53 1 28 4 79 7 112 15 172 18 214 19
257 1 26 3 45 6 43 4 -2 6 26 5 61 0 35 4 64 9 64 5 0 4 6 -2 14 -7 8 -8 17
-3 20 5 3 8 32 8 65 -1 34 2 61 5 61 3 0 5 21 4 48 -1 26 1 51 4 57 3 5 6 35
8 65 1 30 5 84 8 120 3 36 8 92 10 125 3 33 8 92 11 130 3 39 7 84 8 100 2 17
4 32 5 35 7 15 6 50 -1 50 -5 0 -6 6 -1 13 4 6 8 32 9 57 2 44 10 140 20 233
2 26 1 48 -3 48 -5 1 -322 2 -705 3 l-698 1 -1 -90z"/>
<path d="M16760 9405 c0 -6 -24 -11 -52 -11 -64 -1 -137 -9 -145 -17 -3 -4
-15 -2 -26 4 -14 8 -18 8 -13 0 5 -7 -2 -11 -16 -12 -42 -2 -72 -8 -128 -24
-30 -9 -62 -17 -70 -19 -22 -4 -124 -38 -135 -45 -5 -4 -28 -13 -50 -20 -22
-8 -46 -18 -54 -24 -7 -6 -20 -12 -29 -13 -8 -2 -19 -9 -23 -16 -5 -7 -9 -9
-9 -4 0 5 -8 2 -17 -6 -20 -17 -54 -32 -66 -29 -4 0 -10 -6 -13 -14 -4 -8 -12
-15 -19 -15 -8 0 -20 -6 -27 -13 -7 -7 -43 -35 -80 -62 -38 -27 -68 -52 -68
-57 0 -4 -7 -8 -16 -8 -8 0 -12 -4 -9 -10 3 -5 2 -10 -3 -10 -7 0 -34 -25
-113 -108 -8 -10 -29 -35 -45 -57 -16 -22 -33 -43 -39 -47 -5 -4 -6 -8 -2 -8
4 0 -3 -12 -17 -27 -14 -15 -23 -30 -20 -35 3 -4 0 -8 -5 -8 -6 0 -11 -5 -11
-10 0 -6 -11 -28 -24 -49 -14 -21 -22 -42 -19 -45 4 -3 1 -6 -6 -6 -7 0 -9 -4
-6 -10 3 -5 1 -10 -5 -10 -6 0 -8 -4 -5 -10 3 -5 2 -10 -3 -10 -5 0 -9 -6 -9
-12 -1 -7 -11 -39 -22 -70 -12 -32 -22 -66 -24 -75 -1 -10 -5 -22 -9 -28 -3
-5 -9 -35 -13 -65 -4 -30 -12 -58 -18 -62 -9 -6 -9 -8 -1 -8 8 0 9 -13 5 -37
-4 -21 -7 -68 -6 -105 0 -39 -4 -68 -10 -68 -7 0 -7 -3 0 -8 6 -4 10 -35 10
-69 0 -35 3 -63 6 -63 3 0 6 -12 6 -27 1 -27 3 -39 22 -115 5 -21 7 -38 4 -38
-3 0 0 -7 7 -15 6 -8 8 -20 4 -26 -4 -7 -3 -9 4 -5 6 4 13 -7 17 -26 4 -18 14
-42 21 -53 8 -11 14 -27 14 -37 0 -10 4 -18 8 -18 5 0 16 -17 26 -37 22 -46
146 -206 146 -189 0 3 17 -13 38 -35 22 -21 42 -39 46 -39 4 0 16 -9 28 -20
12 -11 34 -26 50 -32 15 -7 28 -17 28 -21 0 -5 4 -6 9 -3 5 4 11 3 13 -1 10
-25 211 -93 326 -113 40 -6 112 -13 160 -14 48 -1 93 -6 100 -10 7 -4 12 -4
12 1 0 4 21 7 48 7 26 -1 47 -3 47 -4 0 -1 25 -4 55 -5 81 -6 128 -15 190 -36
30 -11 59 -20 65 -22 5 -1 28 -21 51 -44 36 -38 41 -48 43 -98 1 -38 -2 -55
-10 -55 -7 0 -9 -3 -6 -6 11 -12 -13 -43 -56 -72 -23 -16 -46 -31 -52 -32 -5
-1 -14 -4 -20 -6 -98 -34 -374 -39 -575 -10 -55 9 -85 14 -85 16 0 1 -13 3
-30 5 -16 2 -50 9 -75 15 -25 5 -60 13 -77 16 -18 4 -33 10 -33 15 0 4 -9 6
-20 4 -11 -2 -20 1 -20 7 0 6 -3 9 -6 5 -6 -6 -102 25 -136 44 -10 5 -27 9
-38 9 -14 0 -19 4 -14 12 5 8 2 9 -9 5 -10 -3 -17 -2 -17 3 0 6 -3 9 -7 8 -12
-2 -87 33 -94 44 -3 5 -10 10 -15 10 -5 1 -19 7 -31 15 -33 22 -58 13 -57 -20
0 -15 -4 -27 -9 -27 -5 0 -4 -6 2 -13 6 -8 8 -17 4 -20 -3 -4 -7 -19 -9 -34
-1 -16 -3 -28 -4 -28 -1 0 -3 -22 -5 -48 -1 -26 -5 -51 -9 -54 -3 -3 -1 -12 5
-20 6 -7 7 -13 2 -13 -5 0 -10 -19 -12 -42 -1 -23 -4 -45 -7 -50 -3 -5 -8 -37
-10 -71 -4 -68 -11 -132 -13 -132 -1 0 -4 -25 -6 -55 -2 -30 -7 -73 -9 -95 -6
-47 -19 -175 -19 -192 0 -7 -3 -13 -6 -13 -3 0 -7 -25 -7 -55 -1 -39 2 -55 11
-55 7 0 15 -3 17 -8 2 -4 35 -20 73 -36 39 -16 89 -38 113 -48 23 -10 48 -16
55 -12 7 4 9 3 4 -1 -7 -8 35 -31 73 -40 50 -13 150 -52 144 -57 -3 -4 3 -4
15 -1 12 3 21 1 21 -4 0 -5 6 -10 13 -10 6 -1 37 -8 67 -17 30 -9 66 -19 80
-22 14 -3 27 -9 28 -15 2 -5 7 -7 12 -4 5 3 30 -2 55 -11 26 -8 49 -13 53 -10
3 3 10 2 16 -3 12 -10 70 -23 101 -22 11 0 23 -5 27 -12 6 -9 8 -8 8 2 0 11 3
11 16 0 24 -20 448 -16 482 5 7 4 12 3 12 -3 0 -7 8 -7 23 -2 13 5 46 12 73
15 57 7 105 15 114 21 4 2 20 7 36 9 16 3 40 8 54 12 14 3 31 6 38 6 6 1 12 5
12 10 0 5 5 6 10 3 6 -4 17 -1 25 5 8 7 15 9 15 5 0 -4 7 -2 15 5 8 7 15 9 15
5 0 -4 6 -2 13 4 8 6 17 8 20 4 4 -3 7 -1 7 5 0 6 7 9 15 6 8 -4 15 -1 15 5 0
6 7 11 15 11 8 0 23 4 33 9 9 6 40 21 67 34 103 50 245 142 245 160 0 4 4 6 9
3 5 -3 11 1 15 9 3 8 13 15 21 15 9 0 13 5 10 10 -3 6 -2 10 3 10 8 0 42 33
109 106 40 44 73 91 73 105 0 7 3 9 6 6 4 -4 15 8 25 26 31 54 113 221 114
232 1 6 6 22 13 38 12 27 23 70 24 95 1 6 5 12 9 12 4 0 6 11 4 25 -1 14 1 25
5 25 4 0 6 10 6 23 -1 12 0 27 3 32 20 36 34 371 19 445 -3 19 -8 51 -9 70 -2
19 -5 40 -8 45 -3 6 -7 19 -8 30 -6 37 -54 175 -64 181 -5 3 -7 10 -4 15 4 5
1 9 -4 9 -6 0 -11 9 -11 20 0 11 -4 20 -10 20 -5 0 -10 5 -10 11 0 17 -82 128
-135 181 -25 26 -74 68 -108 92 -67 47 -223 126 -250 126 -9 0 -19 5 -22 11
-4 6 -13 8 -20 5 -7 -2 -16 -2 -20 2 -4 4 -11 8 -16 8 -5 1 -10 2 -11 3 -3 2
-43 8 -93 15 -12 1 -25 5 -31 9 -15 9 -368 2 -384 -8 -9 -5 -11 -4 -6 3 5 9 0
10 -16 4 -19 -6 -173 -8 -173 -2 0 1 -12 3 -26 4 -38 4 -119 27 -119 35 0 3
-14 12 -30 19 -17 8 -28 17 -25 22 3 5 0 10 -7 12 -16 6 -17 120 0 126 6 2 10
7 7 11 -2 5 13 22 34 39 52 42 140 70 270 87 17 2 36 7 42 11 8 5 9 3 4 -5 -6
-10 -3 -11 14 -2 15 8 21 9 21 1 0 -7 5 -8 13 -3 19 12 130 12 146 -1 11 -8
13 -8 8 0 -4 8 11 10 51 8 31 -1 57 -3 57 -4 0 -1 23 -3 50 -5 28 -3 68 -7 90
-11 22 -3 57 -7 77 -9 20 -2 42 -6 48 -10 6 -4 26 -9 43 -12 18 -3 34 -8 37
-11 5 -7 36 -12 72 -13 10 0 20 -4 23 -10 4 -5 16 -9 28 -9 12 0 54 -11 92
-25 39 -13 73 -20 77 -17 4 4 8 27 9 52 1 25 4 49 7 53 2 5 6 37 8 70 2 34 4
77 5 95 1 18 7 35 12 39 5 3 4 9 -4 13 -9 6 -10 13 -3 22 6 7 10 37 10 65 -1
29 1 53 4 53 3 0 5 21 5 48 0 26 2 51 4 56 2 5 6 27 7 50 2 23 6 68 9 101 11
119 16 181 18 210 2 17 6 36 10 43 5 7 3 12 -4 12 -8 0 -8 4 -2 13 5 6 9 32 9
56 l-1 43 -65 26 c-36 15 -67 29 -70 32 -3 3 -14 6 -25 8 -24 3 -31 5 -69 21
-16 6 -35 10 -42 7 -8 -3 -16 -1 -19 4 -4 6 -15 10 -26 10 -10 0 -19 3 -19 8
0 4 -10 8 -22 8 -45 3 -78 8 -78 14 0 3 -10 7 -22 8 -50 5 -103 11 -103 12 0
3 -42 10 -80 14 -22 2 -40 5 -40 6 0 1 -26 2 -57 3 -32 1 -58 4 -58 7 0 3 -9
6 -20 6 -11 0 -20 -4 -20 -9 0 -6 -5 -6 -12 -1 -7 5 -52 9 -100 9 -49 0 -88 4
-88 8 0 4 -9 3 -20 -3 -15 -8 -20 -8 -20 2 0 10 -2 10 -9 0 -4 -8 -12 -14 -16
-14 -4 0 -12 6 -16 14 -5 7 -9 8 -9 3z"/>
<path d="M5429 9303 c-3 -200 -5 -229 -12 -240 -4 -6 -3 -14 1 -17 10 -6 9
-36 -1 -53 -4 -6 -4 -14 1 -17 10 -6 8 -48 -3 -66 -5 -9 -4 -15 3 -18 7 -2 9
-8 6 -14 -4 -5 -8 -108 -9 -229 -2 -120 -5 -222 -7 -226 -2 -4 -3 -79 -3 -165
0 -87 -4 -158 -8 -158 -4 0 -4 -8 2 -17 5 -10 5 -26 0 -41 -6 -15 -5 -21 1
-17 6 4 7 -2 1 -18 -6 -16 -6 -28 2 -36 6 -6 7 -11 1 -11 -11 0 -12 -79 -1
-97 4 -6 4 -14 0 -16 -5 -3 -8 -84 -8 -181 0 -97 -2 -176 -5 -176 -3 0 -6 -75
-7 -168 -1 -92 -5 -313 -9 -492 -4 -179 -7 -344 -7 -367 0 -25 -4 -43 -11 -43
-6 0 -4 -5 4 -10 13 -9 13 -11 0 -20 -8 -5 -10 -10 -5 -10 6 0 10 -22 10 -50
0 -27 -4 -50 -9 -50 -6 0 -5 -5 2 -12 7 -7 8 -17 2 -29 -7 -12 -6 -20 0 -24 6
-4 7 -11 4 -17 -4 -6 -8 -70 -8 -142 -1 -72 -5 -137 -10 -145 -6 -8 -5 -12 0
-8 5 3 9 -32 9 -84 0 -49 -2 -89 -5 -89 -3 0 -5 -51 -5 -113 l0 -112 130 2
c257 4 325 8 325 18 0 7 3 7 8 0 11 -15 32 -17 48 -4 11 9 14 9 14 0 0 -7 5
-9 11 -5 7 4 51 8 98 9 48 1 92 5 98 8 7 4 14 3 18 -2 3 -6 11 -8 18 -5 7 2
67 6 134 8 66 2 126 6 132 10 6 4 11 1 11 -6 0 -9 3 -9 10 2 6 10 10 11 10 3
0 -9 7 -10 24 -3 13 5 27 6 30 3 3 -4 6 7 7 23 0 16 1 52 2 79 1 28 6 53 12
57 7 5 6 8 -1 8 -6 0 -9 17 -7 43 2 23 5 76 6 117 1 41 7 78 12 82 7 5 7 8 0
8 -5 0 -9 15 -8 32 1 18 2 33 3 33 0 0 2 44 3 97 1 53 6 100 10 104 4 4 2 13
-4 21 -9 10 -8 13 2 13 11 0 11 2 -1 10 -8 5 -10 10 -5 10 6 0 10 43 10 108 0
60 4 110 10 114 6 5 5 8 -3 8 -9 0 -10 5 -3 19 6 10 8 21 5 24 -3 3 -3 15 1
28 7 21 8 20 22 -10 9 -17 19 -31 24 -31 5 0 9 -7 9 -15 0 -8 3 -15 8 -15 4 0
18 -17 32 -38 14 -20 27 -39 30 -42 3 -3 17 -21 30 -40 14 -19 30 -42 37 -50
40 -50 83 -111 83 -118 0 -4 9 -14 20 -22 11 -8 20 -19 20 -25 0 -6 9 -18 20
-28 11 -9 20 -24 20 -32 0 -8 4 -15 8 -15 9 0 103 -125 114 -152 4 -10 12 -18
17 -18 5 0 12 -8 16 -19 3 -10 19 -31 35 -47 16 -16 30 -33 30 -39 0 -5 13
-26 30 -45 16 -19 28 -36 25 -38 -2 -2 11 -17 27 -33 17 -16 27 -29 22 -29 -5
-1 2 -10 15 -20 13 -11 19 -20 15 -20 -5 -1 2 -10 15 -20 13 -11 19 -20 15
-20 -5 0 -4 -4 1 -8 6 -4 22 -23 37 -44 42 -56 59 -70 72 -60 6 5 18 10 26 10
16 2 49 7 95 16 78 16 102 20 130 20 17 1 32 4 35 8 3 3 28 9 55 12 28 4 70
11 95 16 52 12 103 20 143 22 15 1 27 5 27 9 0 4 14 6 30 5 17 -1 30 1 30 4 0
3 8 6 18 6 27 1 104 14 140 24 19 5 40 6 48 3 8 -3 14 -1 14 4 0 5 8 9 18 9 9
0 37 4 62 9 25 4 61 8 80 9 19 1 37 4 40 7 5 7 76 20 116 23 15 1 19 6 16 24
-2 12 -8 22 -13 22 -5 0 -15 15 -23 34 -8 18 -19 37 -25 40 -6 4 -9 12 -6 17
4 5 1 9 -4 9 -6 0 -11 5 -11 11 0 6 -9 22 -20 36 -11 14 -17 29 -14 34 3 5 1
9 -4 9 -8 0 -51 69 -54 87 -1 5 -10 17 -20 27 -9 10 -15 23 -12 28 3 4 1 8 -4
8 -4 0 -18 17 -29 38 -23 42 -139 239 -165 280 -9 15 -25 43 -35 62 -9 19 -22
40 -29 47 -6 6 -17 25 -24 42 -7 17 -16 31 -21 31 -5 0 -8 3 -7 8 2 6 -20 46
-60 107 -7 11 -17 32 -23 48 -6 15 -15 27 -20 27 -5 0 -9 5 -9 12 0 6 -11 26
-25 43 -13 18 -21 35 -18 39 4 3 2 6 -3 6 -6 0 -16 16 -24 35 -8 19 -17 35
-22 35 -4 0 -8 5 -8 11 0 6 -13 30 -30 53 -16 24 -26 46 -23 50 4 3 0 6 -7 6
-7 0 -11 3 -7 6 3 3 -3 15 -14 27 -10 11 -19 27 -19 34 0 7 -4 13 -8 13 -5 0
-14 16 -22 35 -8 19 -17 35 -21 35 -4 0 -10 11 -13 25 -4 14 -11 25 -16 25 -6
0 -10 6 -10 14 0 8 -6 21 -14 28 -7 8 -17 24 -20 36 -4 12 -12 22 -17 22 -6 0
-7 5 -4 10 3 6 2 10 -3 10 -5 0 -12 8 -15 18 -6 17 -37 72 -47 82 -16 16 -41
72 -38 87 4 22 21 42 31 36 4 -2 7 0 7 6 0 5 10 21 23 34 42 46 67 77 67 83 0
2 10 15 23 28 43 44 72 81 69 89 -1 4 2 7 6 7 7 0 120 130 207 238 5 7 23 26
38 42 16 17 26 30 23 30 -3 0 13 19 37 43 23 24 42 45 42 48 1 12 33 48 38 42
4 -3 7 -1 7 5 0 11 16 32 65 86 11 12 34 39 50 61 17 21 38 45 47 53 9 9 15
19 12 24 -3 4 2 8 10 8 9 0 16 4 16 9 0 8 40 58 82 102 9 9 14 20 10 23 -3 3
-1 6 5 6 6 0 37 33 69 72 32 40 65 80 74 88 8 9 31 36 50 59 19 24 43 52 53
64 20 23 17 42 20 -180 1 -68 6 -123 11 -123 5 0 3 -6 -3 -13 -6 -8 -9 -16 -6
-19 3 -3 8 -88 11 -189 3 -101 6 -198 7 -214 0 -17 -2 -36 -7 -43 -4 -7 -3
-12 1 -12 5 0 8 -44 8 -97 0 -54 4 -101 10 -105 6 -5 5 -8 -2 -8 -7 0 -10 -6
-7 -14 3 -8 6 -79 8 -158 1 -79 6 -149 10 -156 4 -7 3 -12 -1 -12 -5 0 -9 -9
-9 -20 0 -11 4 -20 8 -20 5 0 4 -9 -2 -19 -7 -14 -7 -22 1 -27 8 -4 7 -9 -2
-15 -9 -6 -10 -9 -2 -9 12 0 12 -17 0 -36 -3 -6 -3 -14 1 -18 4 -4 8 -44 8
-89 1 -45 5 -183 9 -307 11 -344 13 -415 16 -552 1 -85 6 -128 13 -128 8 0 8
-2 0 -8 -12 -7 -11 -72 0 -91 4 -6 3 -11 -3 -11 -7 0 -7 -8 -2 -22 5 -13 5
-33 0 -45 -5 -13 -5 -23 -1 -23 4 0 7 -53 7 -118 0 -66 4 -120 10 -124 6 -5 5
-8 -3 -8 -10 0 -10 -5 -2 -20 8 -14 8 -20 0 -20 -6 0 -8 -5 -5 -11 4 -6 8 -72
10 -147 1 -75 6 -145 10 -154 5 -12 15 -16 38 -13 17 2 64 5 104 6 41 1 76 5
78 10 3 4 18 4 34 -1 16 -4 32 -6 35 -3 3 3 49 7 103 9 54 1 98 3 98 4 0 1 36
2 80 3 44 2 86 6 93 10 6 5 12 4 12 -2 0 -7 8 -7 25 -1 18 7 25 6 25 -3 0 -8
3 -8 8 -2 4 6 30 11 57 12 116 2 340 15 344 19 3 3 6 35 7 72 5 155 13 273 19
282 3 5 0 10 -7 10 -10 0 -10 2 1 9 9 6 10 11 2 15 -6 4 -8 13 -4 19 4 7 8 30
9 52 6 148 16 349 19 400 3 33 6 104 7 157 2 54 5 98 8 98 3 0 5 43 5 95 0 52
2 95 5 95 3 0 5 45 5 100 0 55 4 100 8 100 4 0 3 9 -3 20 -6 11 -7 20 -3 20 8
0 14 123 17 322 0 49 3 88 6 88 3 0 6 53 8 117 2 70 8 124 15 132 9 12 9 13
-1 7 -10 -6 -11 0 -6 26 3 18 7 85 9 148 2 63 4 115 5 115 1 0 2 36 4 80 1 44
5 86 9 92 4 6 2 13 -5 15 -7 3 -8 9 -3 18 4 7 10 50 11 94 2 45 6 126 9 181 9
155 9 160 1 173 -4 7 -3 12 2 12 5 0 9 12 9 28 0 15 3 90 7 167 4 77 9 172 9
212 1 39 5 69 8 67 3 -2 4 7 2 21 -5 21 -9 23 -47 19 -22 -2 -76 -5 -118 -5
-53 -2 -75 -5 -71 -13 4 -6 -1 -4 -12 4 -22 18 -18 18 -38 1 -12 -9 -17 -10
-17 -2 0 7 -5 9 -11 5 -7 -4 -42 -7 -80 -8 -37 -1 -71 -5 -75 -8 -3 -4 -15 -3
-25 2 -12 7 -20 7 -24 0 -5 -8 -11 -7 -21 1 -8 6 -14 7 -14 2 0 -4 -29 -8 -65
-8 -36 0 -65 -4 -65 -9 0 -5 -6 -3 -14 3 -11 9 -15 9 -19 -1 -4 -11 -6 -10 -6
0 -1 8 -6 10 -13 5 -7 -4 -51 -8 -98 -9 -47 -2 -85 -3 -85 -4 0 -1 -34 -3 -75
-4 -41 -2 -133 -7 -205 -11 -71 -5 -150 -9 -175 -10 -25 -2 -50 -3 -57 -4 -8
-1 -11 -34 -8 -121 3 -114 2 -119 -15 -110 -10 6 -31 12 -47 14 -15 2 -35 6
-43 9 -8 3 -26 8 -40 10 -14 3 -35 8 -47 11 -118 31 -147 38 -170 39 -13 1
-23 6 -23 11 0 4 -7 6 -15 3 -8 -4 -17 -2 -20 3 -4 6 -17 10 -31 10 -14 0 -33
4 -43 9 -9 5 -32 12 -51 14 -19 3 -35 6 -35 7 0 1 -11 4 -25 7 -39 7 -55 11
-55 13 0 2 -30 9 -60 15 -11 2 -35 8 -52 14 -18 5 -33 7 -33 4 0 -3 -7 0 -15
7 -8 7 -15 10 -15 7 0 -3 -15 -1 -32 5 -18 6 -44 12 -58 14 -14 1 -50 10 -80
19 -30 9 -66 18 -80 21 -14 3 -66 16 -117 28 -87 22 -93 23 -108 7 -8 -10 -15
-23 -15 -29 0 -7 -4 -12 -8 -12 -4 0 -16 -15 -27 -32 -20 -35 -30 -48 -57 -79
-10 -10 -18 -22 -17 -25 1 -6 -29 -49 -49 -70 -7 -8 -10 -14 -5 -14 4 0 3 -4
-3 -8 -10 -7 -37 -45 -85 -119 -12 -18 -26 -33 -32 -33 -6 0 -7 -3 -4 -6 4 -4
-6 -23 -21 -43 -16 -20 -55 -75 -87 -123 -32 -49 -63 -88 -67 -88 -5 0 -7 -4
-4 -8 4 -7 -7 -24 -54 -79 -5 -7 -10 -16 -10 -21 0 -4 -9 -18 -20 -30 -12 -12
-18 -22 -15 -22 3 0 -6 -11 -21 -25 -15 -14 -23 -25 -19 -25 5 0 -2 -11 -15
-25 -13 -14 -20 -25 -16 -25 4 0 1 -6 -6 -14 -7 -7 -20 -24 -28 -36 -8 -13
-25 -36 -38 -51 -13 -16 -20 -34 -16 -40 4 -8 3 -9 -4 -5 -7 4 -12 2 -12 -4 0
-6 -4 -9 -9 -6 -4 3 -5 23 -1 44 4 21 5 47 4 58 -2 10 2 22 9 26 9 6 9 8 -1 8
-8 0 -10 5 -6 12 4 6 7 31 7 55 -1 23 2 41 6 39 3 -2 7 24 8 57 3 128 8 207
13 207 3 0 5 28 5 63 0 34 2 67 5 72 2 6 5 21 6 35 5 88 21 265 24 265 1 0 3
35 5 78 3 66 1 77 -13 78 -55 5 -109 8 -207 14 -60 3 -146 8 -190 10 -44 2
-124 6 -177 9 -54 3 -102 7 -108 11 -5 3 -10 0 -10 -7 0 -8 -3 -9 -8 -3 -4 6
-32 11 -62 12 -56 2 -177 8 -372 19 l-108 5 -1 -68z"/>
</g>
</svg>
